# xmcd
#
# Track frame offsets:
#	150
#	42016
#	62390
#	128540
#	165482
#	194044
#	212912
#	253283
#
# Disc length: 4201 seconds
#
# Revision: 1
# Processed by: cddbd v1.5.1PL0 Copyright (c) Steve Scherf et al.
# Submitted via: audiograbber 1.82.01
#
DISCID=6e106708
DTITLE=Blood, Sweat and Tears - Live 1969
DYEAR=1900
DGENRE=
TTITLE0=Blood, Sweat and Tears - Sympathy For The Devil
TTITLE1=Blood, Sweat and Tears - Sometimes in Winter
TTITLE2=Blood, Sweat and Tears - Lucretia Mac Evil
TTITLE3=Blood, Sweat and Tears - And When I Die
TTITLE4=Blood, Sweat and Tears - You've Made Me So Very Happy
TTITLE5=Blood, Sweat and Tears - Say You Will
TTITLE6=Blood, Sweat and Tears - You're the One
TTITLE7=Blood, Sweat and Tears - (Suite) Spanish Wine
EXTD=
EXTT0=
EXTT1=
EXTT2=
EXTT3=
EXTT4=
EXTT5=
EXTT6=
EXTT7=
PLAYORDER=
